<svg xmlns="http://www.w3.org/2000/svg" width="37.416" height="34.578" viewBox="0 0 37.416 34.578"><defs><style>.a{fill:none;}.b{fill:#89929b;}</style></defs><g transform="translate(3.416 0.578)"><path class="a" d="M0,0H34V34H0Z"/><g transform="translate(-3.416 -0.578)"><rect class="a" width="34.142" height="34.142"/><g transform="translate(5.69 5.69)"><rect class="b" width="5.69" height="5.69" transform="translate(8.535)"/><rect class="b" width="5.69" height="5.69" transform="translate(0 17.071)"/><rect class="b" width="5.69" height="5.69" transform="translate(0 8.535)"/><rect class="b" width="5.69" height="5.69"/><rect class="b" width="5.69" height="5.69" transform="translate(17.071)"/><path class="b" d="M11,20.374v3.044h2.987l8.507-8.493L19.478,11.91Z" transform="translate(-1.042 -0.364)"/><path class="b" d="M15.69,12.888V10H10v5.69h2.888Z" transform="translate(-1.465 -1.171)"/><path class="b" d="M22.194,12.219l-2.006-2.006a.7.7,0,0,0-1.01,0L17.67,11.721l3.016,3.016,1.508-1.508A.7.7,0,0,0,22.194,12.219Z" transform="translate(1.776 -1.171)"/></g></g></g></svg>