<svg xmlns="http://www.w3.org/2000/svg" width="131.595" height="40.916" viewBox="0 0 131.595 40.916"><defs><style>.a{opacity:0;}.b,.c{fill:#89929b;}.b{stroke:rgba(0,0,0,0);}</style></defs><g transform="translate(0.646)"><g transform="translate(0 9.63)"><g transform="translate(0 0)"><g transform="translate(0 0)"><g class="a" transform="translate(0 0)"><path class="b" d="M115.208,131.05h-6.981l3.483-13.419a4.713,4.713,0,0,1,4.69-3.264h6.981L119.9,127.786A4.713,4.713,0,0,1,115.208,131.05Z" transform="translate(-98.064 -108.548)"/><path class="b" d="M79.779,110.419H72.8L76.281,97a4.714,4.714,0,0,1,4.69-3.264h6.981L84.47,107.155A4.714,4.714,0,0,1,79.779,110.419Z" transform="translate(-67.611 -90.814)"/><path class="b" d="M42.843,89.614H35.862l3.483-13.419a4.714,4.714,0,0,1,4.69-3.264h6.981L47.534,86.35A4.714,4.714,0,0,1,42.843,89.614Z" transform="translate(-35.862 -72.931)"/></g><g transform="translate(0)"><g transform="translate(0)"><path class="b" d="M115.181,130.984h-6.954l3.469-13.366a4.7,4.7,0,0,1,4.672-3.251h6.954l-3.469,13.366A4.7,4.7,0,0,1,115.181,130.984Z" transform="translate(-98.105 -108.547)"/><path class="b" d="M79.752,110.353H72.8l3.469-13.366a4.7,4.7,0,0,1,4.672-3.251h6.954L84.423,107.1A4.7,4.7,0,0,1,79.752,110.353Z" transform="translate(-67.631 -90.826)"/><path class="b" d="M42.816,89.548H35.862l3.469-13.366A4.7,4.7,0,0,1,44,72.931h6.954L47.487,86.3A4.7,4.7,0,0,1,42.816,89.548Z" transform="translate(-35.862 -72.931)"/></g></g></g><g transform="translate(31.583 3.646)"><path class="b" d="M268.262,308.08c-1.386,0-2.292.613-2.292,1.546,0,.559.4,1.013,1.2,1.306.32.107,1.332.373,3.038.773,2.506.613,3.758,1.893,3.758,3.865a3.7,3.7,0,0,1-1.493,2.905,6.317,6.317,0,0,1-4.184,1.226,5.66,5.66,0,0,1-5.464-3.731l2.452-1.04a3.859,3.859,0,0,0,2.479,2.292,4.015,4.015,0,0,0,2.745-.373,1.349,1.349,0,0,0,.666-1.2c0-.826-1.013-1.466-2.052-1.759-.506-.133-1.093-.293-1.786-.426-.666-.16-1.119-.266-1.332-.346a3.844,3.844,0,0,1-2.772-3.305c0-2,1.493-3.785,4.344-4.131a6.264,6.264,0,0,1,4.558,1.013,3.974,3.974,0,0,1,1.572,2.079l-2.4.986A3.05,3.05,0,0,0,268.262,308.08Z" transform="translate(-262.825 -305.614)"/><path class="b" d="M303.295,308.486V306.94h2.785v18.1h-2.785v-6.863a4.844,4.844,0,0,1-4.012,1.866,6.725,6.725,0,0,1,0-13.433A4.853,4.853,0,0,1,303.295,308.486Zm-7.53,4.837a3.858,3.858,0,1,0,3.851-4.091A3.822,3.822,0,0,0,295.765,313.323Z" transform="translate(-279.958 -306.18)"/><path class="b" d="M341.561,314.736c0,4.065-2.932,5.744-5.917,5.744s-5.916-1.679-5.916-5.744V307.38h2.8v7.1c0,2.465,1.373,3.372,3.118,3.372s3.118-.906,3.118-3.372v-7.1h2.8Z" transform="translate(-300.937 -306.62)"/><path class="b" d="M363.894,307.671a6.476,6.476,0,0,1,4.718-1.839,6.332,6.332,0,0,1,4.744,1.972,6.77,6.77,0,0,1,1.626,5.544l-10.235.107c0,1.013.827,3.811,3.652,3.891a3.879,3.879,0,0,0,3.944-2.132l2.532.72a6.109,6.109,0,0,1-2.212,2.612,6.742,6.742,0,0,1-4,1.146,6.306,6.306,0,0,1-4.877-1.972A7.038,7.038,0,0,1,362,312.762,6.737,6.737,0,0,1,363.894,307.671Zm8.21,3.518a2.886,2.886,0,0,0-1.093-2.106,3.568,3.568,0,0,0-2.932-.826,3.411,3.411,0,0,0-3.119,2.959Z" transform="translate(-319.323 -305.738)"/><path class="b" d="M399.081,307.671a6.475,6.475,0,0,1,4.718-1.839,6.332,6.332,0,0,1,4.744,1.972,6.77,6.77,0,0,1,1.626,5.544l-10.235.107c0,1.013.827,3.811,3.652,3.891a3.881,3.881,0,0,0,3.945-2.132l2.532.72a6.1,6.1,0,0,1-2.212,2.612,6.74,6.74,0,0,1-4,1.146,6.307,6.307,0,0,1-4.877-1.972,7.039,7.039,0,0,1-1.786-4.958A6.738,6.738,0,0,1,399.081,307.671Zm8.21,3.518a2.887,2.887,0,0,0-1.093-2.106,3.568,3.568,0,0,0-2.931-.826,3.411,3.411,0,0,0-3.119,2.959Z" transform="translate(-339.367 -305.738)"/><path class="b" d="M432.376,317.628l7.277-8.476h-7.01V306.7h10.395v2.345l-7.223,8.4h7.276v2.479H432.376Z" transform="translate(-359.412 -306.233)"/><path class="b" d="M464.128,307.671a6.476,6.476,0,0,1,4.718-1.839,6.333,6.333,0,0,1,4.744,1.972,6.771,6.771,0,0,1,1.626,5.544l-10.235.107c0,1.013.827,3.811,3.652,3.891a3.881,3.881,0,0,0,3.945-2.132l2.532.72a6.106,6.106,0,0,1-2.212,2.612,6.74,6.74,0,0,1-4,1.146,6.306,6.306,0,0,1-4.877-1.972,7.039,7.039,0,0,1-1.786-4.958A6.737,6.737,0,0,1,464.128,307.671Zm8.21,3.518a2.887,2.887,0,0,0-1.094-2.106,3.567,3.567,0,0,0-2.931-.826,3.411,3.411,0,0,0-3.119,2.959Z" transform="translate(-376.422 -305.738)"/></g></g><path class="c" d="M-73.872-6.427V-7.492h-1.794v-.59c0-.881.38-1.274,1.2-1.274a2.248,2.248,0,0,1,.818.158l.133-1.04a2.215,2.215,0,0,0-1.008-.222,2.159,2.159,0,0,0-2.358,2.308v.659H-78.05v1.065H-76.9v5.021h1.255V-6.427Zm.292,1.978a3.142,3.142,0,0,0,3.233,3.17,3.142,3.142,0,0,0,3.233-3.17,3.142,3.142,0,0,0-3.233-3.17A3.142,3.142,0,0,0-73.581-4.449Zm1.255,0A1.936,1.936,0,0,1-70.348-6.44,1.936,1.936,0,0,1-68.37-4.449a1.936,1.936,0,0,1-1.978,1.991A1.936,1.936,0,0,1-72.325-4.449Zm7.658-3.043h-1.262v6.086h1.262V-4.722A1.5,1.5,0,0,1-63.12-6.453a2.009,2.009,0,0,1,.742.139l.133-1.154a2.375,2.375,0,0,0-.837-.152,1.688,1.688,0,0,0-1.585.957Zm5.9,6.086h4.184a2.468,2.468,0,0,0,2.726-2.434,2.1,2.1,0,0,0-1.382-2.029,1.931,1.931,0,0,0,.907-1.693,2.47,2.47,0,0,0-2.713-2.453h-3.721ZM-57.44-6.3V-8.823h2.269c.792,0,1.471.406,1.471,1.262A1.25,1.25,0,0,1-55.1-6.3Zm0,3.7V-5.2h2.834a1.288,1.288,0,0,1,1.369,1.357A1.24,1.24,0,0,1-54.6-2.6Zm11.05-1.458a1.489,1.489,0,0,1-1.521,1.6,1.487,1.487,0,0,1-1.515-1.6V-7.492h-1.262v3.651A2.545,2.545,0,0,0-47.912-1.28a2.568,2.568,0,0,0,2.77-2.6V-7.492H-46.39Zm4.641-1.021c-.767-.158-1.052-.349-1.052-.729,0-.45.456-.71,1.376-.71a5.014,5.014,0,0,1,1.851.355l.133-1.09a5.549,5.549,0,0,0-2.048-.368c-1.521,0-2.536.761-2.536,1.794a1.756,1.756,0,0,0,1.642,1.769l.9.184c.786.158,1.116.38,1.116.792,0,.469-.425.7-1.338.7a5.456,5.456,0,0,1-2.079-.437l-.152,1.084a5.2,5.2,0,0,0,2.314.456c1.477,0,2.479-.59,2.479-1.819,0-1.059-.659-1.578-1.9-1.832Zm5,3.67V-7.492H-38v6.086Zm-.628-7.354a.744.744,0,0,0,.78-.773.744.744,0,0,0-.78-.773.739.739,0,0,0-.773.773A.739.739,0,0,0-37.375-8.76Zm5.363,1.141a2.173,2.173,0,0,0-1.87.894v-.767h-1.262v6.086h1.255v-3.43a1.561,1.561,0,0,1,1.68-1.591,1.411,1.411,0,0,1,1.5,1.591v3.43h1.255V-5.1A2.341,2.341,0,0,0-32.012-7.619Zm9.268,4.6a4.712,4.712,0,0,1-2.13.571,1.99,1.99,0,0,1-2.174-1.547h4.736A2.915,2.915,0,0,0-25.2-7.619a3.058,3.058,0,0,0-3.132,3.17,3.17,3.17,0,0,0,3.461,3.17,4.6,4.6,0,0,0,2.32-.6ZM-27.01-4.994a1.717,1.717,0,0,1,1.845-1.477,1.586,1.586,0,0,1,1.718,1.477Zm7.823-.082c-.767-.158-1.052-.349-1.052-.729,0-.45.456-.71,1.376-.71a5.014,5.014,0,0,1,1.851.355l.133-1.09a5.549,5.549,0,0,0-2.048-.368c-1.521,0-2.536.761-2.536,1.794a1.756,1.756,0,0,0,1.642,1.769l.9.184c.786.158,1.116.38,1.116.792,0,.469-.425.7-1.338.7a5.456,5.456,0,0,1-2.079-.437l-.152,1.084a5.2,5.2,0,0,0,2.314.456c1.477,0,2.479-.59,2.479-1.819,0-1.059-.659-1.578-1.9-1.832Zm5.617,0c-.767-.158-1.052-.349-1.052-.729,0-.45.456-.71,1.376-.71a5.014,5.014,0,0,1,1.851.355l.133-1.09a5.549,5.549,0,0,0-2.048-.368c-1.521,0-2.536.761-2.536,1.794A1.756,1.756,0,0,0-14.2-4.056l.9.184c.786.158,1.116.38,1.116.792,0,.469-.425.7-1.338.7A5.456,5.456,0,0,1-15.6-2.82l-.152,1.084a5.2,5.2,0,0,0,2.314.456c1.477,0,2.479-.59,2.479-1.819,0-1.059-.659-1.578-1.9-1.832Z" transform="translate(141.191 32.566)"/></g><path class="c" d="M-13.718-1.635a1.145,1.145,0,0,0,1.2-1.174A1.114,1.114,0,0,0-13.718-4h-1.521V-.555h.418v-1.08Zm-1.1-1.98h1.055a.761.761,0,0,1,.822.809.778.778,0,0,1-.822.794h-1.055Zm2.571,1.843A1.257,1.257,0,0,0-10.956-.5,1.257,1.257,0,0,0-9.663-1.772,1.257,1.257,0,0,0-10.956-3.04,1.257,1.257,0,0,0-12.25-1.772Zm.4,0a.873.873,0,0,1,.89-.893.873.873,0,0,1,.89.893.873.873,0,0,1-.89.893A.873.873,0,0,1-11.846-1.772Zm4.085-1.192L-8.42-.94l-.6-2.049h-.429l.761,2.434h.54L-7.546-2.4-6.94-.555h.54l.758-2.434h-.426L-6.673-.938l-.659-2.026ZM-3.2-1.107a1.677,1.677,0,0,1-.865.226.888.888,0,0,1-.946-.743h1.991A1.146,1.146,0,0,0-4.176-3.04,1.222,1.222,0,0,0-5.428-1.772,1.268,1.268,0,0,0-4.044-.5a1.792,1.792,0,0,0,.918-.238ZM-5-1.954a.789.789,0,0,1,.834-.71.728.728,0,0,1,.778.71Zm2.959-1.035h-.406V-.555h.406V-1.906c0-.545.317-.758.642-.758a.827.827,0,0,1,.32.061l.041-.373a.9.9,0,0,0-.345-.063.7.7,0,0,0-.657.411Zm3.39,1.882a1.677,1.677,0,0,1-.865.226.888.888,0,0,1-.946-.743H1.533A1.146,1.146,0,0,0,.374-3.04,1.222,1.222,0,0,0-.879-1.772,1.268,1.268,0,0,0,.506-.5a1.792,1.792,0,0,0,.918-.238Zm-1.8-.847a.789.789,0,0,1,.834-.71.728.728,0,0,1,.778.71Zm4.534,1.4h.4v-3.57h-.4v1.537a1.1,1.1,0,0,0-.938-.451A1.213,1.213,0,0,0,1.921-1.777,1.222,1.222,0,0,0,3.148-.5,1.108,1.108,0,0,0,4.086-.95Zm-.9-.314a.87.87,0,0,1-.867-.908.86.86,0,0,1,.867-.9.882.882,0,0,1,.9.9A.892.892,0,0,1,3.189-.869Zm3.563.314v-.4A1.108,1.108,0,0,0,7.69-.5,1.222,1.222,0,0,0,8.917-1.777,1.213,1.213,0,0,0,7.69-3.04a1.1,1.1,0,0,0-.938.451V-4.125h-.4v3.57Zm.9-.314a.892.892,0,0,1-.9-.908.882.882,0,0,1,.9-.9.86.86,0,0,1,.867.9A.87.87,0,0,1,7.649-.869ZM10.317-.95,9.488-2.989H9.049L10.1-.486l-.043.114c-.142.347-.307.522-.583.522A.908.908,0,0,1,9.13.084L9.082.427A.972.972,0,0,0,9.5.51c.492,0,.72-.271.928-.756l1.149-2.744h-.444Z" transform="translate(15.847 4.125)"/></g></svg>