<svg xmlns="http://www.w3.org/2000/svg" xmlns:xlink="http://www.w3.org/1999/xlink" width="182.2" height="44.435" viewBox="0 0 182.2 44.435"><defs><style>.a{opacity:0;}.b{fill:#89929b;}.b,.f{stroke:rgba(0,0,0,0);}.c{fill:url(#a);}.d{fill:url(#b);}.e{fill:url(#c);}.f{fill:#131314;}</style><linearGradient id="a" y1="0.5" x2="1" y2="0.5" gradientUnits="objectBoundingBox"><stop offset="0"/><stop offset="0.537"/><stop offset="0.99" stop-color="#404041"/></linearGradient><linearGradient id="b" x1="0.154" y1="0.462" x2="0.853" y2="0.539" gradientUnits="objectBoundingBox"><stop offset="0.224" stop-color="#030303"/><stop offset="1" stop-color="#404041"/></linearGradient><linearGradient id="c" x1="0.174" y1="0.504" x2="0.988" y2="0.493" gradientUnits="objectBoundingBox"><stop offset="0"/><stop offset="0.5" stop-color="#1c1c1d"/><stop offset="1" stop-color="#404041"/></linearGradient></defs><g transform="translate(0.646 -9.13)"><g transform="translate(0 9.63)"><g transform="translate(0 0)"><g transform="translate(0 0)"><g class="a" transform="translate(0 0)"><path class="b" d="M117.919,137.528h-9.692l4.835-18.629a6.544,6.544,0,0,1,6.511-4.531h9.692L124.431,133A6.544,6.544,0,0,1,117.919,137.528Z" transform="translate(-94.118 -106.288)"/><path class="b" d="M82.49,116.9H72.8l4.835-18.629a6.544,6.544,0,0,1,6.512-4.531h9.692L89,112.365A6.544,6.544,0,0,1,82.49,116.9Z" transform="translate(-65.597 -89.68)"/><path class="b" d="M45.554,96.092H35.862L40.7,77.462a6.544,6.544,0,0,1,6.511-4.531H56.9l-4.835,18.63A6.544,6.544,0,0,1,45.554,96.092Z" transform="translate(-35.862 -72.931)"/></g><g transform="translate(0)"><g transform="translate(0)"><path class="c" d="M117.881,137.436h-9.654l4.816-18.556a6.518,6.518,0,0,1,6.486-4.513h9.654l-4.816,18.556A6.518,6.518,0,0,1,117.881,137.436Z" transform="translate(-94.174 -106.288)"/><path class="d" d="M82.452,116.8H72.8l4.816-18.555A6.518,6.518,0,0,1,84.1,93.736h9.654l-4.816,18.556A6.518,6.518,0,0,1,82.452,116.8Z" transform="translate(-65.625 -89.696)"/><path class="e" d="M45.516,96H35.862l4.816-18.556a6.518,6.518,0,0,1,6.486-4.513h9.654L52,91.487A6.518,6.518,0,0,1,45.516,96Z" transform="translate(-35.862 -72.931)"/></g></g></g><g transform="translate(43.847 5.062)"><path class="f" d="M270.374,309.037c-1.924,0-3.182.851-3.182,2.147,0,.776.554,1.406,1.665,1.813.444.148,1.85.518,4.218,1.073,3.479.851,5.217,2.628,5.217,5.366a5.136,5.136,0,0,1-2.072,4.033,8.77,8.77,0,0,1-5.809,1.7,7.858,7.858,0,0,1-7.586-5.18l3.4-1.443a5.357,5.357,0,0,0,3.441,3.183,5.574,5.574,0,0,0,3.812-.518,1.873,1.873,0,0,0,.925-1.665c0-1.147-1.406-2.035-2.849-2.442-.7-.185-1.517-.407-2.479-.592-.925-.222-1.554-.37-1.85-.48-2.109-.741-3.849-2.554-3.849-4.589,0-2.775,2.072-5.255,6.031-5.735a8.7,8.7,0,0,1,6.328,1.406A5.517,5.517,0,0,1,277.922,310l-3.33,1.369C274,309.889,272.409,309.037,270.374,309.037Z" transform="translate(-262.825 -305.614)"/><path class="f" d="M307.331,309.215v-2.147H311.2v25.125h-3.866v-9.529a6.725,6.725,0,0,1-5.569,2.59c-4.959,0-8.862-3.9-8.862-9.325s3.9-9.324,8.862-9.324A6.738,6.738,0,0,1,307.331,309.215Zm-10.453,6.716c0,3.109,2.016,5.68,5.347,5.68,3.2,0,5.347-2.442,5.347-5.68s-2.146-5.68-5.347-5.68C298.894,310.251,296.878,312.823,296.878,315.931Z" transform="translate(-274.932 -306.014)"/><path class="f" d="M346.156,317.593c0,5.643-4.07,7.975-8.215,7.975-4.162,0-8.214-2.331-8.214-7.975V307.38h3.884v9.861c0,3.423,1.906,4.681,4.329,4.681s4.329-1.258,4.329-4.681V307.38h3.886Z" transform="translate(-289.758 -306.325)"/><path class="f" d="M364.629,308.385a8.99,8.99,0,0,1,6.55-2.553,8.791,8.791,0,0,1,6.586,2.738c1.776,1.813,2.517,4.367,2.257,7.7l-14.209.149c0,1.406,1.148,5.291,5.07,5.4a5.385,5.385,0,0,0,5.476-2.96l3.516,1a8.481,8.481,0,0,1-3.071,3.626,9.36,9.36,0,0,1-5.551,1.592,8.755,8.755,0,0,1-6.771-2.738,9.772,9.772,0,0,1-2.48-6.883A9.354,9.354,0,0,1,364.629,308.385Zm11.4,4.885a4.006,4.006,0,0,0-1.517-2.923,4.954,4.954,0,0,0-4.07-1.147,4.735,4.735,0,0,0-4.33,4.107Z" transform="translate(-302.75 -305.702)"/><path class="f" d="M399.816,308.385a8.99,8.99,0,0,1,6.55-2.553,8.791,8.791,0,0,1,6.586,2.738c1.776,1.813,2.517,4.367,2.257,7.7L401,316.415c0,1.406,1.148,5.291,5.07,5.4a5.388,5.388,0,0,0,5.477-2.96l3.515,1a8.474,8.474,0,0,1-3.072,3.626,9.357,9.357,0,0,1-5.55,1.592,8.755,8.755,0,0,1-6.771-2.738,9.772,9.772,0,0,1-2.479-6.883A9.354,9.354,0,0,1,399.816,308.385Zm11.4,4.885a4.009,4.009,0,0,0-1.517-2.923,4.953,4.953,0,0,0-4.07-1.147,4.735,4.735,0,0,0-4.33,4.107Z" transform="translate(-316.915 -305.702)"/><path class="f" d="M432.376,321.871l10.1-11.767h-9.732v-3.4h14.431v3.256L437.15,321.612h10.1v3.442H432.376Z" transform="translate(-331.079 -306.051)"/><path class="f" d="M464.862,308.385a8.991,8.991,0,0,1,6.55-2.553A8.792,8.792,0,0,1,478,308.57c1.776,1.813,2.516,4.367,2.257,7.7l-14.21.149c0,1.406,1.148,5.291,5.07,5.4a5.389,5.389,0,0,0,5.477-2.96l3.515,1a8.477,8.477,0,0,1-3.071,3.626,9.358,9.358,0,0,1-5.551,1.592,8.754,8.754,0,0,1-6.771-2.738,9.772,9.772,0,0,1-2.479-6.883A9.353,9.353,0,0,1,464.862,308.385Zm11.4,4.885a4.008,4.008,0,0,0-1.518-2.923,4.952,4.952,0,0,0-4.069-1.147,4.736,4.736,0,0,0-4.33,4.107Z" transform="translate(-343.1 -305.702)"/></g></g><path class="f" d="M-72.25-4.862V-6.34h-2.491v-.818c0-1.223.528-1.769,1.663-1.769a3.12,3.12,0,0,1,1.135.22l.185-1.443a3.075,3.075,0,0,0-1.4-.308,3,3,0,0,0-3.274,3.2v.915H-78.05v1.479h1.593v6.97h1.743v-6.97Zm.405,2.746a4.362,4.362,0,0,0,4.489,4.4,4.362,4.362,0,0,0,4.488-4.4,4.362,4.362,0,0,0-4.488-4.4A4.362,4.362,0,0,0-71.845-2.116Zm1.743,0a2.688,2.688,0,0,1,2.746-2.764,2.688,2.688,0,0,1,2.746,2.764A2.688,2.688,0,0,1-67.357.648,2.688,2.688,0,0,1-70.1-2.116ZM-59.471-6.34h-1.751V2.109h1.751v-4.6a2.088,2.088,0,0,1,2.147-2.4,2.789,2.789,0,0,1,1.03.194l.185-1.6a3.3,3.3,0,0,0-1.162-.211,2.343,2.343,0,0,0-2.2,1.329Zm8.186,8.449h5.809c2.385,0,3.784-1.514,3.784-3.38A2.91,2.91,0,0,0-43.61-4.087a2.681,2.681,0,0,0,1.259-2.35,3.429,3.429,0,0,0-3.767-3.406h-5.166Zm1.848-6.794v-3.5h3.151c1.1,0,2.042.563,2.042,1.751a1.735,1.735,0,0,1-1.945,1.751Zm0,5.14V-3.154H-45.5a1.788,1.788,0,0,1,1.9,1.883A1.721,1.721,0,0,1-45.494.454ZM-34.1-1.57A2.067,2.067,0,0,1-36.208.648a2.065,2.065,0,0,1-2.1-2.218V-6.34h-1.751v5.069a3.533,3.533,0,0,0,3.855,3.556,3.565,3.565,0,0,0,3.846-3.608V-6.34H-34.1Zm6.443-1.417c-1.065-.22-1.461-.484-1.461-1.012,0-.625.634-.986,1.91-.986a6.961,6.961,0,0,1,2.57.493l.185-1.514a7.7,7.7,0,0,0-2.843-.51c-2.112,0-3.52,1.056-3.52,2.491A2.437,2.437,0,0,0-28.534-1.57l1.25.255c1.091.22,1.549.528,1.549,1.1,0,.651-.59.968-1.857.968A7.575,7.575,0,0,1-30.479.146l-.211,1.5a7.219,7.219,0,0,0,3.212.634c2.051,0,3.441-.818,3.441-2.526,0-1.47-.915-2.191-2.631-2.543Zm6.944,5.1V-6.34h-1.743V2.109ZM-21.581-8.1A1.033,1.033,0,0,0-20.5-9.174a1.033,1.033,0,0,0-1.083-1.074,1.026,1.026,0,0,0-1.074,1.074A1.026,1.026,0,0,0-21.581-8.1Zm7.446,1.584a3.017,3.017,0,0,0-2.6,1.241V-6.34h-1.751V2.109h1.743V-2.653a2.167,2.167,0,0,1,2.332-2.209A1.959,1.959,0,0,1-12.33-2.653V2.109h1.743V-3.022A3.251,3.251,0,0,0-14.135-6.516ZM-1.267-.127A6.541,6.541,0,0,1-4.224.665,2.762,2.762,0,0,1-7.243-1.482H-.669A4.047,4.047,0,0,0-4.682-6.516a4.246,4.246,0,0,0-4.348,4.4c0,2.605,1.963,4.4,4.805,4.4A6.386,6.386,0,0,0-1,1.458ZM-7.19-2.873A2.383,2.383,0,0,1-4.629-4.923,2.2,2.2,0,0,1-2.244-2.873ZM3.671-2.987C2.606-3.207,2.21-3.471,2.21-4c0-.625.634-.986,1.91-.986a6.961,6.961,0,0,1,2.57.493l.185-1.514a7.7,7.7,0,0,0-2.843-.51C1.919-6.516.511-5.46.511-4.025A2.437,2.437,0,0,0,2.79-1.57l1.25.255c1.091.22,1.549.528,1.549,1.1,0,.651-.59.968-1.857.968A7.575,7.575,0,0,1,.845.146l-.211,1.5a7.219,7.219,0,0,0,3.212.634c2.051,0,3.441-.818,3.441-2.526,0-1.47-.915-2.191-2.631-2.543Zm7.8,0C10.4-3.207,10.008-3.471,10.008-4c0-.625.634-.986,1.91-.986a6.961,6.961,0,0,1,2.57.493l.185-1.514a7.7,7.7,0,0,0-2.843-.51c-2.112,0-3.52,1.056-3.52,2.491A2.437,2.437,0,0,0,10.588-1.57l1.25.255c1.091.22,1.549.528,1.549,1.1,0,.651-.59.968-1.857.968A7.575,7.575,0,0,1,8.643.146l-.211,1.5a7.219,7.219,0,0,0,3.212.634c2.051,0,3.441-.818,3.441-2.526,0-1.47-.915-2.191-2.631-2.543Z" transform="translate(165.709 41.15)"/></g></g></svg>